# Blender 3.4.0
# www.blender.org
o Cube
v -0.996179 0.003821 0.000523
v -0.996179 -4.004868 0.000523
v 1.003821 0.003821 0.000523
v 1.003821 -4.004868 0.000523
v -0.996179 0.003821 -0.000533
v -0.996179 -4.004868 -0.000533
v 1.003821 0.003821 -0.000533
v 1.003821 -4.004868 -0.000533
vn -0.0000 -0.0000 -1.0000
vn -0.0000 -0.0000 1.0000
vn -0.0000 -1.0000 -0.0000
vn -1.0000 -0.0000 -0.0000
vn 1.0000 -0.0000 -0.0000
vn -0.0000 1.0000 -0.0000
vt 0.026654 0.009931
vt 0.026654 0.990069
vt 0.973346 0.009931
vt 0.973346 0.990069
vt 0.026654 0.009931
vt 0.026654 0.990069
vt 0.973346 0.009931
vt 0.973346 0.990069
s 0
f 4/4/1 2/2/1 1/1/1
f 4/4/1 1/1/1 3/3/1
f 8/8/2 5/5/2 6/6/2
f 8/8/2 7/7/2 5/5/2
f 1/1/3 7/7/3 3/3/3
f 3/3/4 8/8/4 4/4/4
f 2/2/5 5/5/5 1/1/5
f 4/4/6 6/6/6 2/2/6
f 1/1/3 5/5/3 7/7/3
f 3/3/4 7/7/4 8/8/4
f 2/2/5 6/6/5 5/5/5
f 4/4/6 8/8/6 6/6/6
