# Blender 3.4.0
# www.blender.org
o gem
v -0.512703 0.154296 -0.741607
v 0.565190 0.358510 -0.945873
v 0.326016 -0.103942 -1.146443
v -0.212957 -0.206075 -1.044310
v -0.512703 0.154296 -0.741607
v -0.273529 0.616748 -0.541036
v 0.265444 0.718882 -0.643169
v 0.565190 0.358510 -0.945873
v -0.597620 0.029508 -0.547849
v -0.298297 0.608299 -0.296793
v -0.273529 0.616748 -0.541036
v -0.512703 0.154296 -0.741607
v -0.222515 -0.421485 -0.926704
v -0.597620 0.029508 -0.547849
v -0.512703 0.154296 -0.741607
v -0.212957 -0.206075 -1.044310
v 0.452019 -0.293686 -1.054502
v -0.222515 -0.421485 -0.926704
v -0.212957 -0.206075 -1.044310
v 0.326016 -0.103942 -1.146443
v 0.751344 0.285105 -0.803446
v 0.452019 -0.293686 -1.054502
v 0.326016 -0.103942 -1.146443
v 0.565190 0.358510 -0.945873
v 0.376238 0.736098 -0.424591
v 0.751344 0.285105 -0.803446
v 0.565190 0.358510 -0.945873
v 0.265444 0.718882 -0.643169
v -0.298297 0.608299 -0.296793
v 0.376238 0.736098 -0.424591
v 0.265444 0.718882 -0.643169
v -0.273529 0.616748 -0.541036
v -0.298297 0.608299 -0.296793
v -0.597620 0.029508 -0.547849
v 0.279333 -0.239028 -0.003278
v -0.597620 0.029508 -0.547849
v -0.222515 -0.421485 -0.926704
v 0.279333 -0.239028 -0.003278
v -0.222515 -0.421485 -0.926704
v 0.452019 -0.293686 -1.054502
v 0.279333 -0.239028 -0.003278
v 0.452019 -0.293686 -1.054502
v 0.751344 0.285105 -0.803446
v 0.279333 -0.239028 -0.003278
v 0.751344 0.285105 -0.803446
v 0.376238 0.736098 -0.424591
v 0.279333 -0.239028 -0.003278
v 0.376238 0.736098 -0.424591
v -0.298297 0.608299 -0.296793
v 0.279333 -0.239028 -0.003278
vn 0.2511 -0.4915 0.8339
vn 0.2512 -0.4915 0.8339
vn 0.2512 -0.4915 0.8338
vn 0.8729 -0.4826 0.0718
vn 0.8192 0.2464 0.5178
vn 0.8192 0.2465 0.5178
vn 0.0760 0.4752 0.8766
vn -0.6136 -0.0249 0.7892
vn -0.6136 -0.0250 0.7892
vn -0.5600 -0.7541 0.3432
vn 0.1833 -0.9829 -0.0154
vn 0.1833 -0.9829 -0.0155
vn 0.5436 0.0812 -0.8354
vn 0.4935 0.7623 -0.4188
vn -0.2008 0.9760 -0.0837
vn -0.8450 0.5087 -0.1653
vn -0.7949 -0.1724 -0.5818
vn -0.1006 -0.3862 -0.9169
vt 1.000000 0.000000
vt 0.000000 0.000000
vt 0.125000 -0.375000
vt 0.875000 -0.375000
vt 0.000000 0.000000
vt 0.125000 -0.375000
vt 0.875000 -0.375000
vt 1.000000 0.000000
vt 0.000000 -0.625000
vt 1.000000 -0.625000
vt 0.875000 -0.375000
vt 0.125000 -0.375000
vt 0.000000 -0.625000
vt 1.000000 -0.625000
vt 0.875000 -0.375000
vt 0.125000 -0.375000
vt 0.000000 -0.625000
vt 1.000000 -0.625000
vt 0.875000 -0.375000
vt 0.125000 -0.375000
vt 0.000000 -0.625000
vt 1.000000 -0.625000
vt 0.875000 -0.375000
vt 0.125000 -0.375000
vt 0.000000 -0.625000
vt 1.000000 -0.625000
vt 0.875000 -0.375000
vt 0.125000 -0.375000
vt 0.000000 -0.625000
vt 1.000000 -0.625000
vt 0.875000 -0.375000
vt 0.125000 -0.375000
vt 1.000000 -0.625000
vt 0.000000 -0.625000
vt 0.500000 -1.000000
vt 1.000000 -0.625000
vt 0.000000 -0.625000
vt 0.500000 -1.000000
vt 1.000000 -0.625000
vt 0.000000 -0.625000
vt 0.500000 -1.000000
vt 1.000000 -0.625000
vt 0.000000 -0.625000
vt 0.500000 -1.000000
vt 1.000000 -0.625000
vt 0.000000 -0.625000
vt 0.500000 -1.000000
vt 1.000000 -0.625000
vt 0.000000 -0.625000
vt 0.500000 -1.000000
s 1
f 4/4/1 2/2/2 1/1/1
f 5/5/2 7/7/1 6/6/3
f 9/9/4 11/11/4 10/10/4
f 16/16/5 14/14/6 13/13/5
f 17/17/7 19/19/7 18/18/7
f 21/21/8 23/23/9 22/22/9
f 28/28/10 26/26/10 25/25/10
f 32/32/11 30/30/12 29/29/11
f 33/33/13 35/35/13 34/34/13
f 36/36/14 38/38/14 37/37/14
f 39/39/15 41/41/15 40/40/15
f 42/42/16 44/44/16 43/43/16
f 45/45/17 47/47/17 46/46/17
f 48/48/18 50/50/18 49/49/18
f 4/4/1 3/3/3 2/2/2
f 5/5/2 8/8/1 7/7/1
f 9/9/4 12/12/4 11/11/4
f 16/16/5 15/15/6 14/14/6
f 17/17/7 20/20/7 19/19/7
f 21/21/8 24/24/8 23/23/9
f 28/28/10 27/27/10 26/26/10
f 32/32/11 31/31/12 30/30/12
