# Blender 3.4.0
# www.blender.org
o Plane
v -31.041393 30.146416 -0.036443
v -31.041397 -29.584923 -0.036448
v 31.213697 30.146406 -0.036447
v 31.213692 -29.584934 -0.036452
v -31.041393 30.146416 -0.867997
v -31.041393 -29.584923 -0.868001
v 31.213697 30.146406 -0.868000
v 31.213697 -29.584934 -0.868005
v -31.041393 30.146421 -9.730601
v -31.041397 -29.584923 -9.730607
v 31.213697 30.146406 -9.730609
v 31.213692 -29.584936 -9.730607
v 30.641815 29.562769 -0.090944
v 30.641802 -29.566517 -0.090948
v -30.469503 29.562773 -0.090940
v -30.469509 -29.566513 -0.090945
v 30.641815 29.562769 -0.813504
v 30.641808 -29.566517 -0.813508
v -30.469503 29.562773 -0.813500
v -30.469509 -29.566513 -0.813504
vn -0.0000 -0.0000 1.0000
vn -0.0949 -0.0000 -0.9955
vn 0.0949 -0.0000 0.9955
vn -0.0000 0.0930 0.9957
vn -0.0000 1.0000 -0.0000
vn -1.0000 -0.0000 -0.0000
vn 1.0000 -0.0000 -0.0000
vn -0.0322 0.9995 -0.0000
vn -0.0949 -0.0000 0.9955
vn -0.0000 0.0930 -0.9957
vn 0.0322 0.9995 -0.0000
vn 0.0949 -0.0000 -0.9955
vt 0.959202 0.500000
vt 0.479498 0.500000
vt 0.479601 0.500000
vt 0.000000 0.500000
vt 0.697733 0.513357
vt 0.959202 0.000000
vt 0.479498 1.000000
vt 0.479601 0.000000
vt 0.697733 0.500000
vt 0.000000 1.000000
vt 0.550779 0.500000
vt 0.479601 0.500000
vt 0.621960 0.500000
vt 0.621960 0.979731
vt 0.697733 0.506679
vt 0.000000 0.500000
vt 0.621960 0.500000
vt 0.479601 0.000000
vt 0.550779 1.000000
vt 0.000000 0.000000
vt 0.621960 0.979731
vt 0.697733 0.506679
vt 0.479600 0.500000
vt 0.693139 0.500000
vt 0.693139 0.979731
vt 0.479600 1.000000
vt 0.550780 0.500000
vt 0.550780 0.979731
vt 0.959200 0.965710
vt 0.965003 0.490814
vt 0.474800 0.995407
vt 0.693140 0.500438
vt 0.959200 0.490814
vt 0.000134 0.995407
vt 0.965003 0.000000
vt 0.970807 0.474895
vt 0.474800 0.504593
vt 0.000134 0.504593
vt 0.970807 0.000000
vt 0.693140 0.512919
vt 0.474903 0.004593
vt 0.959200 0.490814
vt 0.965003 0.965710
vt 0.000137 0.004593
vt 0.965003 0.490814
vt 0.693140 0.506241
vt 0.959200 0.000000
vt 0.965003 0.474895
vt 0.474903 0.495407
vt 0.965003 0.000000
vt 0.693140 0.507116
vt 0.000137 0.495407
s 0
f 2/3/1 3/6/1 1/1/1
f 2/3/1 4/8/1 3/6/1
f 2/4/2 15/37/2 16/38/2
f 8/20/3 17/41/3 18/44/3
f 5/12/4 17/41/4 7/18/4
f 7/19/5 9/23/5 5/11/5
f 5/13/6 10/25/6 6/14/6
f 8/21/7 11/27/7 7/17/7
f 13/30/5 19/47/5 15/35/5
f 15/36/6 20/50/6 16/39/6
f 14/33/7 17/43/7 13/29/7
f 2/5/8 20/51/8 6/15/8
f 6/16/9 19/49/9 5/12/9
f 3/7/10 15/37/10 1/2/10
f 4/9/11 18/46/11 14/32/11
f 4/10/12 13/31/12 3/7/12
f 2/4/2 1/2/2 15/37/2
f 8/20/3 7/18/3 17/41/3
f 5/12/4 19/49/4 17/41/4
f 7/19/5 11/26/5 9/23/5
f 5/13/6 9/24/6 10/25/6
f 8/21/7 12/28/7 11/27/7
f 13/30/5 17/42/5 19/47/5
f 15/36/6 19/48/6 20/50/6
f 14/33/7 18/45/7 17/43/7
f 2/5/8 16/40/8 20/51/8
f 6/16/9 20/52/9 19/49/9
f 3/7/10 13/31/10 15/37/10
f 4/9/11 8/22/11 18/46/11
f 4/10/12 14/34/12 13/31/12
