# Blender v3.4.0 OBJ File: 'shop2.blend'
# www.blender.org
mtllib shop2.mtl
v 31.041393 30.146416 0.036443
v 31.041397 -29.584923 0.036448
v -31.213697 30.146406 0.036447
v -31.213692 -29.584934 0.036452
v 31.041393 30.146416 0.867997
v 31.041393 -29.584923 0.868001
v -31.213697 30.146406 0.868000
v -31.213697 -29.584934 0.868005
v 31.041393 30.146421 9.730601
v 31.041397 -29.584923 9.730607
v -31.213697 30.146406 9.730609
v -31.213692 -29.584936 9.730607
v -30.641815 29.562769 0.090944
v -30.641802 -29.566517 0.090948
v 30.469503 29.562773 0.090940
v 30.469509 -29.566513 0.090945
v -30.641815 29.562769 0.813504
v -30.641808 -29.566517 0.813508
v 30.469503 29.562773 0.813500
v 30.469509 -29.566513 0.813504
vt 0.550779 1.000000
vt 0.479600 0.500000
vt 0.550779 0.500000
vt 0.621960 0.500000
vt 0.693139 0.979731
vt 0.621960 0.979731
vt 0.621960 0.979731
vt 0.550780 0.500000
vt 0.621960 0.500000
vt 0.479600 1.000000
vt 0.693139 0.500000
vt 0.550780 0.979731
vt 0.479601 0.500000
vt 0.959202 0.000000
vt 0.959202 0.500000
vt 0.479601 0.000000
vt 0.000000 0.500000
vt 0.474800 0.504593
vt 0.000134 0.504593
vt 0.000000 0.000000
vt 0.474903 0.004593
vt 0.000137 0.004593
vt 0.479601 0.500000
vt 0.479601 0.000000
vt 0.965003 0.490814
vt 0.959200 0.000000
vt 0.965003 0.000000
vt 0.970807 0.474895
vt 0.965003 0.000000
vt 0.970807 0.000000
vt 0.959200 0.490814
vt 0.965003 0.965710
vt 0.959200 0.965710
vt 0.697733 0.513357
vt 0.693140 0.507116
vt 0.697733 0.506679
vt 0.000000 0.500000
vt 0.474903 0.495407
vt 0.479498 1.000000
vt 0.479498 0.500000
vt 0.697733 0.500000
vt 0.693140 0.506241
vt 0.693140 0.500438
vt 0.000000 1.000000
vt 0.474800 0.995407
vt 0.959200 0.490814
vt 0.965003 0.474895
vt 0.965003 0.490814
vt 0.693140 0.512919
vt 0.000137 0.495407
vt 0.697733 0.506679
vt 0.000134 0.995407
vn -0.0000 1.0000 -0.0000
vn 1.0000 -0.0000 -0.0000
vn -1.0000 0.0000 0.0000
vn -0.0000 -0.0000 -1.0000
vn 0.0949 0.0000 0.9955
vn -0.0949 -0.0000 -0.9955
vn -0.0000 0.0930 -0.9957
vn 0.0322 0.9995 0.0000
vn 0.0949 -0.0000 -0.9955
vn 0.0000 0.0930 0.9957
vn -0.0322 0.9995 -0.0000
vn -0.0949 0.0000 0.9955
usemtl stone
s off
f 7/1/1 9/2/1 5/3/1
f 5/4/2 10/5/2 6/6/2
f 8/7/3 11/8/3 7/9/3
f 7/1/1 11/10/1 9/2/1
f 5/4/2 9/11/2 10/5/2
f 8/7/3 12/12/3 11/8/3
usemtl wood
f 2/13/4 3/14/4 1/15/4
f 2/13/4 4/16/4 3/14/4
f 2/17/5 15/18/5 16/19/5
f 8/20/6 17/21/6 18/22/6
f 5/23/7 17/21/7 7/24/7
f 13/25/1 19/26/1 15/27/1
f 15/28/2 20/29/2 16/30/2
f 14/31/3 17/32/3 13/33/3
f 2/34/8 20/35/8 6/36/8
f 6/37/9 19/38/9 5/23/9
f 3/39/10 15/18/10 1/40/10
f 4/41/11 18/42/11 14/43/11
f 4/44/12 13/45/12 3/39/12
f 2/17/5 1/40/5 15/18/5
f 8/20/6 7/24/6 17/21/6
f 5/23/7 19/38/7 17/21/7
f 13/25/1 17/46/1 19/26/1
f 15/28/2 19/47/2 20/29/2
f 14/31/3 18/48/3 17/32/3
f 2/34/8 16/49/8 20/35/8
f 6/37/9 20/50/9 19/38/9
f 3/39/10 13/45/10 15/18/10
f 4/41/11 8/51/11 18/42/11
f 4/44/12 14/52/12 13/45/12
