# Blender 3.3.1
# www.blender.org
o SpikesTop
v -0.521644 -0.143095 0.854656
v -0.658574 -0.143095 0.854656
v -0.521644 -0.143095 -0.854656
v -0.658574 -0.143095 -0.854656
v -0.521644 -1.852407 0.854656
v -0.658575 -1.852407 0.854656
v -0.521644 -1.852407 -0.854656
v -0.658575 -1.852407 -0.854656
v 0.539626 -0.997751 -0.090000
v -0.640374 -0.997751 -0.090000
v 0.539626 -1.061391 -0.063639
v -0.640374 -1.061391 -0.063640
v 0.539626 -1.087751 0.000000
v -0.640374 -1.087751 -0.000000
v 0.539626 -1.061391 0.063640
v -0.640374 -1.061391 0.063640
v 0.539626 -0.997751 0.090000
v -0.640374 -0.997751 0.090000
v 0.539626 -0.934112 0.063640
v -0.640374 -0.934111 0.063640
v 0.539626 -0.907751 0.000000
v -0.640374 -0.907751 0.000000
v 0.539626 -0.934111 -0.063639
v -0.640374 -0.934111 -0.063640
v -0.666681 -1.006866 -0.505350
v -0.666681 -1.006866 -0.686061
v -0.666681 -1.178733 -0.561192
v -0.666681 -1.113086 -0.359151
v -0.666681 -0.900647 -0.359151
v -0.666681 -0.835000 -0.561192
v -0.966034 -1.006866 -0.527329
v -0.666681 -0.482739 -0.505350
v -0.666681 -0.482739 -0.686061
v -0.666681 -0.654605 -0.561192
v -0.666681 -0.588958 -0.359151
v -0.666681 -0.376520 -0.359151
v -0.666681 -0.310873 -0.561192
v -0.966034 -0.482739 -0.527329
v -0.666681 -1.521878 -0.505350
v -0.666681 -1.521878 -0.686061
v -0.666681 -1.693745 -0.561193
v -0.666681 -1.628097 -0.359151
v -0.666681 -1.415659 -0.359151
v -0.666681 -1.350012 -0.561192
v -0.966034 -1.521878 -0.527329
v -0.666681 -1.006866 -0.013126
v -0.666681 -1.006866 -0.193837
v -0.666681 -1.178733 -0.068969
v -0.666681 -1.113086 0.133072
v -0.666681 -0.900647 0.133072
v -0.666681 -0.835000 -0.068969
v -0.966034 -1.006866 -0.035105
v -0.666681 -0.482739 -0.013126
v -0.666681 -0.482739 -0.193837
v -0.666681 -0.654605 -0.068969
v -0.666681 -0.588958 0.133073
v -0.666681 -0.376520 0.133073
v -0.666681 -0.310873 -0.068968
v -0.966034 -0.482739 -0.035105
v -0.666681 -1.521878 -0.013126
v -0.666681 -1.521878 -0.193837
v -0.666681 -1.693745 -0.068969
v -0.666681 -1.628098 0.133072
v -0.666681 -1.415659 0.133072
v -0.666681 -1.350012 -0.068969
v -0.966034 -1.521878 -0.035105
v -0.666681 -1.006866 0.451752
v -0.666681 -1.006866 0.271041
v -0.666681 -1.178733 0.395909
v -0.666681 -1.113086 0.597950
v -0.666681 -0.900647 0.597950
v -0.666681 -0.835000 0.395910
v -0.966034 -1.006866 0.429773
v -0.666681 -0.482739 0.451752
v -0.666681 -0.482739 0.271041
v -0.666681 -0.654605 0.395910
v -0.666681 -0.588958 0.597951
v -0.666681 -0.376520 0.597951
v -0.666681 -0.310873 0.395910
v -0.966034 -0.482739 0.429773
v -0.666681 -1.521878 0.451752
v -0.666681 -1.521878 0.271041
v -0.666681 -1.693745 0.395909
v -0.666681 -1.628098 0.597950
v -0.666681 -1.415659 0.597950
v -0.666681 -1.350012 0.395909
v -0.966034 -1.521878 0.429773
vn -0.0000 -1.0000 -0.0000
vn -0.0000 -0.0000 1.0000
vn -0.0000 1.0000 -0.0000
vn -0.0000 -0.0000 -1.0000
vn -1.0000 -0.0000 -0.0000
vn 1.0000 -0.0000 -0.0000
vn -0.0000 0.3827 0.9239
vn -0.0000 0.9239 0.3827
vn -0.0000 0.9239 -0.3827
vn -0.0000 0.3827 -0.9239
vn -0.0000 -0.3827 -0.9239
vn -0.0000 -0.9239 -0.3827
vn -0.0000 -0.9239 0.3827
vn -0.0000 -0.3827 0.9239
vn 0.3942 0.5402 0.7435
vn 0.4551 0.8469 -0.2752
vn 0.4898 -0.0000 -0.8718
vn 0.4551 -0.8469 -0.2752
vn 0.3942 -0.5402 0.7435
vt 0.375000 0.000000
vt 0.375000 1.000000
vt 0.125000 0.750000
vt 0.625000 0.000000
vt 0.625000 1.000000
vt 0.875000 0.750000
vt 0.125000 0.500000
vt 0.375000 0.250000
vt 0.625000 0.250000
vt 0.875000 0.500000
vt 0.375000 0.750000
vt 0.625000 0.750000
vt 0.375000 0.500000
vt 0.625000 0.500000
vt 1.000000 0.500000
vt 0.000000 0.500000
vt 0.750000 0.490000
vt 1.000000 1.000000
vt 0.250000 0.490000
vt 0.000000 1.000000
vt 0.875000 0.500000
vt 0.919706 0.419706
vt 0.875000 1.000000
vt 0.419706 0.419706
vt 0.750000 0.500000
vt 0.990000 0.250000
vt 0.750000 1.000000
vt 0.490000 0.250000
vt 0.625000 0.500000
vt 0.919706 0.080294
vt 0.625000 1.000000
vt 0.419706 0.080294
vt 0.500000 0.500000
vt 0.750000 0.010000
vt 0.500000 1.000000
vt 0.250000 0.010000
vt 0.375000 0.500000
vt 0.580294 0.080294
vt 0.375000 1.000000
vt 0.080294 0.080294
vt 0.250000 0.500000
vt 0.510000 0.250000
vt 0.010000 0.250000
vt 0.250000 1.000000
vt 0.125000 0.500000
vt 0.580294 0.419706
vt 0.080294 0.419706
vt 0.125000 1.000000
vt 0.750000 0.250000
vt 0.750000 0.490000
vt 0.250000 0.490000
vt 0.978254 0.324164
vt 0.478254 0.324164
vt 0.891068 0.055836
vt 0.391068 0.055836
vt 0.608932 0.055836
vt 0.108932 0.055836
vt 0.521746 0.324164
vt 0.021746 0.324164
vt 0.250000 0.250000
vt 0.750000 0.250000
vt 0.750000 0.490000
vt 0.250000 0.490000
vt 0.978254 0.324164
vt 0.478254 0.324164
vt 0.891068 0.055836
vt 0.391068 0.055836
vt 0.608932 0.055836
vt 0.108932 0.055836
vt 0.521746 0.324164
vt 0.021746 0.324164
vt 0.250000 0.250000
vt 0.750000 0.250000
vt 0.750000 0.490000
vt 0.250000 0.490000
vt 0.978254 0.324164
vt 0.478254 0.324164
vt 0.891068 0.055836
vt 0.391068 0.055836
vt 0.608932 0.055836
vt 0.108932 0.055836
vt 0.521746 0.324164
vt 0.021746 0.324164
vt 0.250000 0.250000
vt 0.750000 0.250000
vt 0.750000 0.490000
vt 0.250000 0.490000
vt 0.978254 0.324164
vt 0.478254 0.324164
vt 0.891068 0.055836
vt 0.391068 0.055836
vt 0.608932 0.055836
vt 0.108932 0.055836
vt 0.521746 0.324164
vt 0.021746 0.324164
vt 0.250000 0.250000
vt 0.750000 0.250000
vt 0.750000 0.490000
vt 0.250000 0.490000
vt 0.978254 0.324164
vt 0.478254 0.324164
vt 0.891068 0.055836
vt 0.391068 0.055836
vt 0.608932 0.055836
vt 0.108932 0.055836
vt 0.521746 0.324164
vt 0.021746 0.324164
vt 0.250000 0.250000
vt 0.750000 0.250000
vt 0.750000 0.490000
vt 0.250000 0.490000
vt 0.978254 0.324164
vt 0.478254 0.324164
vt 0.891068 0.055836
vt 0.391068 0.055836
vt 0.608932 0.055836
vt 0.108932 0.055836
vt 0.521746 0.324164
vt 0.021746 0.324164
vt 0.250000 0.250000
vt 0.750000 0.250000
vt 0.750000 0.490000
vt 0.250000 0.490000
vt 0.978254 0.324164
vt 0.478254 0.324164
vt 0.891068 0.055836
vt 0.391068 0.055836
vt 0.608932 0.055836
vt 0.108932 0.055836
vt 0.521746 0.324164
vt 0.021746 0.324164
vt 0.250000 0.250000
vt 0.750000 0.250000
vt 0.750000 0.490000
vt 0.250000 0.490000
vt 0.978254 0.324164
vt 0.478254 0.324164
vt 0.891068 0.055836
vt 0.391068 0.055836
vt 0.608932 0.055836
vt 0.108932 0.055836
vt 0.521746 0.324164
vt 0.021746 0.324164
vt 0.250000 0.250000
vt 0.750000 0.250000
vt 0.750000 0.490000
vt 0.250000 0.490000
vt 0.978254 0.324164
vt 0.478254 0.324164
vt 0.891068 0.055836
vt 0.391068 0.055836
vt 0.608932 0.055836
vt 0.108932 0.055836
vt 0.521746 0.324164
vt 0.021746 0.324164
vt 0.250000 0.250000
s 0
f 2/4/1 3/8/1 1/1/1
f 4/9/2 7/13/2 3/8/2
f 7/13/3 6/12/3 5/11/3
f 6/12/4 1/2/4 5/11/4
f 7/13/5 1/3/5 3/7/5
f 4/10/6 6/12/6 8/14/6
f 10/18/7 11/21/7 9/15/7
f 12/23/8 13/25/8 11/21/8
f 14/27/9 15/29/9 13/25/9
f 16/31/10 17/33/10 15/29/10
f 18/35/11 19/37/11 17/33/11
f 20/39/12 21/41/12 19/37/12
f 22/43/6 18/36/6 14/28/6
f 22/44/13 23/45/13 21/41/13
f 24/48/14 9/16/14 23/45/14
f 15/30/5 19/38/5 23/46/5
f 25/49/5 26/50/5 27/52/5
f 26/51/15 31/60/15 27/53/15
f 25/49/5 27/52/5 28/54/5
f 27/53/16 31/60/16 28/55/16
f 25/49/5 28/54/5 29/56/5
f 28/55/17 31/60/17 29/57/17
f 25/49/5 29/56/5 30/58/5
f 29/57/18 31/60/18 30/59/18
f 25/49/5 30/58/5 26/50/5
f 30/59/19 31/60/19 26/51/19
f 32/61/5 33/62/5 34/64/5
f 33/63/15 38/72/15 34/65/15
f 32/61/5 34/64/5 35/66/5
f 34/65/16 38/72/16 35/67/16
f 32/61/5 35/66/5 36/68/5
f 35/67/17 38/72/17 36/69/17
f 32/61/5 36/68/5 37/70/5
f 36/69/18 38/72/18 37/71/18
f 32/61/5 37/70/5 33/62/5
f 37/71/19 38/72/19 33/63/19
f 39/73/5 40/74/5 41/76/5
f 40/75/15 45/84/15 41/77/15
f 39/73/5 41/76/5 42/78/5
f 41/77/16 45/84/16 42/79/16
f 39/73/5 42/78/5 43/80/5
f 42/79/17 45/84/17 43/81/17
f 39/73/5 43/80/5 44/82/5
f 43/81/18 45/84/18 44/83/18
f 39/73/5 44/82/5 40/74/5
f 44/83/19 45/84/19 40/75/19
f 46/85/5 47/86/5 48/88/5
f 47/87/15 52/96/15 48/89/15
f 46/85/5 48/88/5 49/90/5
f 48/89/16 52/96/16 49/91/16
f 46/85/5 49/90/5 50/92/5
f 49/91/17 52/96/17 50/93/17
f 46/85/5 50/92/5 51/94/5
f 50/93/18 52/96/18 51/95/18
f 46/85/5 51/94/5 47/86/5
f 51/95/19 52/96/19 47/87/19
f 53/97/5 54/98/5 55/100/5
f 54/99/15 59/108/15 55/101/15
f 53/97/5 55/100/5 56/102/5
f 55/101/16 59/108/16 56/103/16
f 53/97/5 56/102/5 57/104/5
f 56/103/17 59/108/17 57/105/17
f 53/97/5 57/104/5 58/106/5
f 57/105/18 59/108/18 58/107/18
f 53/97/5 58/106/5 54/98/5
f 58/107/19 59/108/19 54/99/19
f 60/109/5 61/110/5 62/112/5
f 61/111/15 66/120/15 62/113/15
f 60/109/5 62/112/5 63/114/5
f 62/113/16 66/120/16 63/115/16
f 60/109/5 63/114/5 64/116/5
f 63/115/17 66/120/17 64/117/17
f 60/109/5 64/116/5 65/118/5
f 64/117/18 66/120/18 65/119/18
f 60/109/5 65/118/5 61/110/5
f 65/119/19 66/120/19 61/111/19
f 67/121/5 68/122/5 69/124/5
f 68/123/15 73/132/15 69/125/15
f 67/121/5 69/124/5 70/126/5
f 69/125/16 73/132/16 70/127/16
f 67/121/5 70/126/5 71/128/5
f 70/127/17 73/132/17 71/129/17
f 67/121/5 71/128/5 72/130/5
f 71/129/18 73/132/18 72/131/18
f 67/121/5 72/130/5 68/122/5
f 72/131/19 73/132/19 68/123/19
f 74/133/5 75/134/5 76/136/5
f 75/135/15 80/144/15 76/137/15
f 74/133/5 76/136/5 77/138/5
f 76/137/16 80/144/16 77/139/16
f 74/133/5 77/138/5 78/140/5
f 77/139/17 80/144/17 78/141/17
f 74/133/5 78/140/5 79/142/5
f 78/141/18 80/144/18 79/143/18
f 74/133/5 79/142/5 75/134/5
f 79/143/19 80/144/19 75/135/19
f 81/145/5 82/146/5 83/148/5
f 82/147/15 87/156/15 83/149/15
f 81/145/5 83/148/5 84/150/5
f 83/149/16 87/156/16 84/151/16
f 81/145/5 84/150/5 85/152/5
f 84/151/17 87/156/17 85/153/17
f 81/145/5 85/152/5 86/154/5
f 85/153/18 87/156/18 86/155/18
f 81/145/5 86/154/5 82/146/5
f 86/155/19 87/156/19 82/147/19
f 2/4/1 4/9/1 3/8/1
f 4/9/2 8/14/2 7/13/2
f 7/13/3 8/14/3 6/12/3
f 6/12/4 2/5/4 1/2/4
f 7/13/5 5/11/5 1/3/5
f 4/10/6 2/6/6 6/12/6
f 10/18/7 12/23/7 11/21/7
f 12/23/8 14/27/8 13/25/8
f 14/27/9 16/31/9 15/29/9
f 16/31/10 18/35/10 17/33/10
f 18/35/11 20/39/11 19/37/11
f 20/39/12 22/44/12 21/41/12
f 14/28/6 12/24/6 10/19/6
f 10/19/6 24/47/6 22/43/6
f 22/43/6 20/40/6 18/36/6
f 18/36/6 16/32/6 14/28/6
f 14/28/6 10/19/6 22/43/6
f 22/44/13 24/48/13 23/45/13
f 24/48/14 10/20/14 9/16/14
f 23/46/5 9/17/5 11/22/5
f 11/22/5 13/26/5 15/30/5
f 15/30/5 17/34/5 19/38/5
f 19/38/5 21/42/5 23/46/5
f 23/46/5 11/22/5 15/30/5
