# Blender 3.3.0
# www.blender.org
mtllib walls.mtl
o Cube
v -105.776917 0.559697 64.473503
v -105.776917 0.559699 -64.473503
v 105.776917 0.559697 64.473503
v 105.776917 0.559699 -64.473503
v -105.776917 6.014497 64.473503
v -105.776917 6.014501 -64.473503
v 105.776917 6.014497 64.473503
v 105.776917 6.014501 -64.473503
vn 1.0000 -0.0000 -0.0000
vn -0.0000 -0.0000 -1.0000
vn -0.0000 -0.0000 1.0000
vn -1.0000 -0.0000 -0.0000
vt 4.223211 -0.018756
vt -3.223212 -0.018756
vt 4.223211 -0.018756
vt -3.223212 -0.018756
vt 4.223211 -0.018756
vt -3.223212 -0.018756
vt 4.223211 -0.018756
vt -3.223212 -0.018756
vt 4.223211 1.018756
vt -3.223212 1.018756
vt -3.223212 1.018756
vt 4.223211 1.018756
vt 4.223211 1.018756
vt -3.223212 1.018756
vt -3.223212 1.018756
vt 4.223211 1.018756
s 0
f 4/8/1 7/13/1 3/5/1
f 2/4/2 8/16/2 4/7/2
f 3/6/3 5/9/3 1/1/3
f 1/2/4 6/12/4 2/3/4
f 4/8/1 8/15/1 7/13/1
f 2/4/2 6/11/2 8/16/2
f 3/6/3 7/14/3 5/9/3
f 1/2/4 5/10/4 6/12/4
o Cube.001
v -105.776917 -0.559701 64.473503
v -105.776917 0.559695 64.473503
v -105.776917 -0.559695 -64.473503
v -105.776917 0.559701 -64.473503
v 105.776917 -0.559701 64.473503
v 105.776917 0.559695 64.473503
v 105.776917 -0.559695 -64.473503
v 105.776917 0.559701 -64.473503
vn 1.0000 -0.0000 -0.0000
vn -0.0000 -0.0000 1.0000
vn -1.0000 -0.0000 -0.0000
vn -0.0000 -0.0000 -1.0000
vn -0.0000 -1.0000 -0.0000
vt 0.375000 0.000000
vt 0.375000 1.000000
vt 0.625000 0.000000
vt 0.625000 1.000000
vt -1.348512 2.348512
vt 0.375000 0.250000
vt 0.625000 0.250000
vt 2.348512 2.348512
vt 0.375000 0.750000
vt -1.348512 -1.348512
vt 0.625000 0.750000
vt 0.375000 0.500000
vt 0.625000 0.500000
vt 2.348512 -1.348512
s 0
f 11/22/5 10/19/5 9/17/5
f 15/28/6 12/23/6 11/22/6
f 13/25/7 16/29/7 15/28/7
f 9/18/8 14/27/8 13/25/8
f 10/21/9 16/30/9 14/26/9
f 11/22/5 12/23/5 10/19/5
f 15/28/6 16/29/6 12/23/6
f 13/25/7 14/27/7 16/29/7
f 9/18/8 10/20/8 14/27/8
f 10/21/9 12/24/9 16/30/9
o Cube.002
v -105.776917 35.729450 64.473503
v -105.776917 35.729458 -64.473503
v 105.776917 35.729450 64.473503
v 105.776917 35.729458 -64.473503
v -105.776917 6.014495 64.473503
v -105.776917 6.014502 -64.473503
v 105.776917 6.014495 64.473503
v 105.776917 6.014502 -64.473503
vn -1.0000 -0.0000 -0.0000
vn -0.0000 -0.0000 1.0000
vn -0.0000 -0.0000 -1.0000
vn 1.0000 -0.0000 -0.0000
vt 3.750000 -2.000000
vt -2.750000 -2.000000
vt -2.750000 -2.000000
vt 3.750000 -2.000000
vt 3.750000 -2.000000
vt -2.750000 -2.000000
vt -2.750000 -2.000000
vt 3.750000 -2.000000
vt -2.750000 3.000000
vt 3.750000 3.000000
vt -2.750000 3.000000
vt 3.750000 3.000000
vt -2.750000 3.000000
vt 3.750000 3.000000
vt -2.750000 3.000000
vt 3.750000 3.000000
s 0
f 21/40/10 18/33/10 22/41/10
f 23/44/11 17/32/11 21/39/11
f 22/42/12 20/37/12 24/45/12
f 24/46/13 19/36/13 23/43/13
f 21/40/10 17/31/10 18/33/10
f 23/44/11 19/35/11 17/32/11
f 22/42/12 18/34/12 20/37/12
f 24/46/13 20/38/13 19/36/13
