# Blender 3.4.0
# www.blender.org
o Torus
v -1.388463 -0.000000 0.372038
v -1.274212 -0.000000 0.148032
v -1.073284 -0.000000 -0.056372
v -0.875000 0.000000 -0.006492
v -0.765077 0.000000 0.097804
v -1.282772 -0.531342 0.372038
v -1.177218 -0.487620 0.148032
v -0.991585 -0.410728 -0.056372
v -0.808395 -0.334848 -0.006492
v -0.706839 -0.292782 0.097804
v -0.981791 -0.981791 0.372038
v -0.901004 -0.901004 0.148032
v -0.758926 -0.758926 -0.056372
v -0.618718 -0.618719 -0.006492
v -0.540991 -0.540991 0.097804
v -0.531342 -1.282772 0.372038
v -0.487620 -1.177218 0.148032
v -0.410728 -0.991585 -0.056372
v -0.334848 -0.808394 -0.006492
v -0.292782 -0.706839 0.097804
v -0.000000 -1.388463 0.372038
v -0.000000 -1.274212 0.148032
v -0.000000 -1.073284 -0.056372
v -0.000000 -0.875000 -0.006492
v -0.000000 -0.765077 0.097804
v 0.531342 -1.282772 0.372038
v 0.487620 -1.177218 0.148032
v 0.410728 -0.991585 -0.056372
v 0.334848 -0.808395 -0.006492
v 0.292782 -0.706839 0.097804
v 0.981792 -0.981791 0.372038
v 0.901004 -0.901004 0.148032
v 0.758926 -0.758926 -0.056372
v 0.618719 -0.618718 -0.006492
v 0.540991 -0.540991 0.097804
v 1.282772 -0.531342 0.372038
v 1.177218 -0.487620 0.148032
v 0.991585 -0.410728 -0.056372
v 0.808395 -0.334848 -0.006492
v 0.706839 -0.292782 0.097804
v 1.388463 -0.000000 0.372038
v 1.274212 -0.000000 0.148032
v 1.073284 -0.000000 -0.056372
v 0.875000 -0.000000 -0.006492
v 0.765077 -0.000000 0.097804
v 1.282772 0.531341 0.372038
v 1.177219 0.487619 0.148032
v 0.991585 0.410727 -0.056372
v 0.808395 0.334848 -0.006492
v 0.706839 0.292782 0.097804
v 0.981792 0.981791 0.372038
v 0.901004 0.901004 0.148032
v 0.758926 0.758926 -0.056372
v 0.618719 0.618718 -0.006492
v 0.540991 0.540991 0.097804
v 0.531342 1.282772 0.372038
v 0.487620 1.177218 0.148032
v 0.410728 0.991585 -0.056372
v 0.334848 0.808395 -0.006492
v 0.292782 0.706839 0.097804
v -0.000000 1.388463 0.372038
v -0.000000 1.274212 0.148032
v -0.000000 1.073284 -0.056372
v -0.000000 0.875000 -0.006492
v -0.000000 0.765077 0.097804
v -0.531342 1.282772 0.372038
v -0.487620 1.177218 0.148032
v -0.410728 0.991585 -0.056372
v -0.334848 0.808394 -0.006492
v -0.292782 0.706839 0.097804
v -0.981791 0.981792 0.372038
v -0.901003 0.901004 0.148032
v -0.758926 0.758926 -0.056372
v -0.618718 0.618719 -0.006492
v -0.540991 0.540991 0.097804
v -1.282772 0.531342 0.372038
v -1.177218 0.487620 0.148032
v -0.991585 0.410728 -0.056372
v -0.808394 0.334848 -0.006492
v -0.706839 0.292783 0.097804
vn 0.8230 0.3409 0.4543
vn 0.8177 -0.0000 0.5757
vn 0.8908 -0.0000 0.4543
vn 0.6589 0.2729 0.7010
vn 0.7131 -0.0000 0.7010
vn -0.2254 -0.0934 0.9698
vn -0.4568 -0.0000 0.8895
vn -0.2440 -0.0000 0.9698
vn -0.4221 -0.1748 0.8895
vn -0.6883 -0.0000 0.7254
vn 0.5782 0.5782 0.5757
vn 0.7554 0.3129 0.5757
vn -0.1725 -0.1725 0.9698
vn -0.4867 -0.4867 0.7254
vn -0.6359 -0.2634 0.7254
vn 0.3409 0.8230 0.4543
vn 0.6299 0.6299 0.4543
vn 0.2729 0.6589 0.7010
vn 0.5043 0.5043 0.7010
vn -0.0934 -0.2254 0.9698
vn -0.3230 -0.3230 0.8895
vn -0.1748 -0.4221 0.8895
vn -0.0000 0.8908 0.4543
vn 0.3129 0.7554 0.5757
vn -0.0000 0.8177 0.5757
vn -0.0000 -0.2440 0.9698
vn -0.0000 -0.4568 0.8895
vn -0.2634 -0.6359 0.7254
vn -0.3409 0.8230 0.4543
vn -0.3129 0.7554 0.5757
vn -0.0000 0.7131 0.7010
vn 0.0934 -0.2254 0.9698
vn 0.1748 -0.4221 0.8895
vn -0.0000 -0.6883 0.7254
vn -0.6299 0.6299 0.4543
vn -0.5782 0.5782 0.5757
vn -0.2729 0.6589 0.7010
vn 0.1725 -0.1725 0.9698
vn 0.4867 -0.4867 0.7254
vn 0.2634 -0.6359 0.7254
vn -0.8230 0.3409 0.4543
vn -0.6589 0.2729 0.7010
vn -0.5043 0.5043 0.7010
vn 0.2254 -0.0934 0.9698
vn 0.3230 -0.3230 0.8895
vn 0.4221 -0.1748 0.8895
vn -0.8908 -0.0000 0.4543
vn -0.7554 0.3129 0.5757
vn -0.8177 -0.0000 0.5757
vn 0.2440 -0.0000 0.9698
vn 0.4568 -0.0000 0.8895
vn 0.6359 -0.2634 0.7254
vn -0.8230 -0.3409 0.4543
vn -0.7554 -0.3129 0.5757
vn -0.7131 -0.0000 0.7010
vn 0.2254 0.0934 0.9698
vn 0.4221 0.1748 0.8895
vn 0.6883 -0.0000 0.7254
vn -0.5782 -0.5782 0.5757
vn -0.6589 -0.2729 0.7010
vn 0.1725 0.1725 0.9698
vn 0.3230 0.3230 0.8895
vn 0.6359 0.2634 0.7254
vn -0.3409 -0.8230 0.4543
vn -0.6299 -0.6299 0.4543
vn -0.2729 -0.6589 0.7010
vn -0.5043 -0.5043 0.7010
vn 0.1748 0.4221 0.8895
vn 0.4867 0.4867 0.7254
vn -0.0000 -0.8177 0.5757
vn -0.3129 -0.7554 0.5757
vn -0.0000 0.2440 0.9698
vn 0.0934 0.2254 0.9698
vn -0.0000 0.4568 0.8895
vn 0.2634 0.6359 0.7254
vn 0.3409 -0.8230 0.4543
vn -0.0000 -0.8908 0.4543
vn 0.2729 -0.6589 0.7010
vn -0.0000 -0.7131 0.7010
vn -0.0934 0.2254 0.9698
vn -0.1748 0.4221 0.8895
vn -0.0000 0.6883 0.7254
vn 0.6299 -0.6299 0.4543
vn 0.3129 -0.7554 0.5757
vn 0.5782 -0.5782 0.5757
vn -0.1725 0.1725 0.9698
vn -0.4867 0.4867 0.7254
vn -0.2634 0.6359 0.7254
vn 0.7554 -0.3129 0.5757
vn 0.5043 -0.5043 0.7010
vn -0.2254 0.0934 0.9698
vn -0.3230 0.3230 0.8895
vn -0.4221 0.1748 0.8895
vn 0.8230 -0.3409 0.4543
vn 0.6589 -0.2729 0.7010
vn -0.6359 0.2634 0.7254
vn -0.0000 -0.0000 -1.0000
vt 1.729312 1.324481
vt 1.574259 1.222980
vt 1.443273 1.137224
vt 1.267033 1.019149
vt 1.118947 0.922267
vt 1.320738 1.734802
vt 1.216259 1.581734
vt 1.128039 1.452466
vt 1.010380 1.276151
vt 0.910595 1.130237
vt 0.786124 1.957523
vt 0.748303 1.776059
vt 0.716405 1.622894
vt 0.675358 1.415140
vt 0.639124 1.242361
vt 0.206703 1.957838
vt 0.241621 1.775722
vt 0.271115 1.622102
vt 0.313128 1.414723
vt 0.346080 1.241487
vt -0.328402 1.734654
vt -0.225901 1.580050
vt -0.139410 1.449683
vt -0.020648 1.274669
vt 0.076532 1.127656
vt -0.735986 1.322059
vt -0.581940 1.218802
vt -0.451854 1.131638
vt -0.274339 1.015563
vt -0.127836 0.917492
vt -0.954095 0.785331
vt -0.772582 0.748555
vt -0.619068 0.717425
vt -0.409853 0.677328
vt -0.234842 0.642353
vt -0.953031 0.207332
vt -0.771390 0.242071
vt -0.617797 0.271381
vt -0.409779 0.313178
vt -0.235925 0.345650
vt -0.732776 -0.326807
vt -0.578140 -0.225526
vt -0.447460 -0.140010
vt -0.271630 -0.022354
vt -0.124382 0.073648
vt -0.325095 -0.736254
vt -0.221070 -0.583459
vt -0.133214 -0.454462
vt -0.016234 -0.278668
vt 0.082393 -0.133460
vt 0.208699 -0.957838
vt 0.246060 -0.776741
vt 0.277591 -0.623839
vt 0.317893 -0.416502
vt 0.352991 -0.244361
vt 0.786893 -0.957323
vt 0.751846 -0.775658
vt 0.722214 -0.622252
vt 0.679701 -0.415105
vt 0.645869 -0.242363
vt 1.320912 -0.734934
vt 1.218874 -0.580467
vt 1.132646 -0.450007
vt 1.013836 -0.274714
vt 0.916198 -0.127785
vt 1.729321 -0.324892
vt 1.575904 -0.221114
vt 1.446257 -0.133457
vt 1.269266 -0.016725
vt 1.122647 0.081982
vt 1.950187 0.210233
vt 1.768717 0.247618
vt 1.615362 0.279185
vt 1.407073 0.319633
vt 1.233691 0.355093
vt 1.950187 0.789234
vt 1.768147 0.754580
vt 1.614323 0.725285
vt 1.406299 0.683309
vt 1.232399 0.650106
s 1
f 6/6/1 2/2/2 1/1/3
f 2/2/2 8/8/4 3/3/5
f 8/8/6 4/4/7 3/3/8
f 9/9/9 5/5/10 4/4/7
f 6/6/1 12/12/11 7/7/12
f 12/12/11 8/8/4 7/7/12
f 13/13/13 9/9/9 8/8/6
f 9/9/9 15/15/14 10/10/15
f 16/16/16 12/12/11 11/11/17
f 12/12/11 18/18/18 13/13/19
f 18/18/20 14/14/21 13/13/13
f 19/19/22 15/15/14 14/14/21
f 21/21/23 17/17/24 16/16/16
f 22/22/25 18/18/18 17/17/24
f 23/23/26 19/19/22 18/18/20
f 24/24/27 20/20/28 19/19/22
f 26/26/29 22/22/25 21/21/23
f 27/27/30 23/23/31 22/22/25
f 28/28/32 24/24/27 23/23/26
f 29/29/33 25/25/34 24/24/27
f 31/31/35 27/27/30 26/26/29
f 32/32/36 28/28/37 27/27/30
f 33/33/38 29/29/33 28/28/32
f 29/29/33 35/35/39 30/30/40
f 36/36/41 32/32/36 31/31/35
f 32/32/36 38/38/42 33/33/43
f 38/38/44 34/34/45 33/33/38
f 39/39/46 35/35/39 34/34/45
f 41/41/47 37/37/48 36/36/41
f 42/42/49 38/38/42 37/37/48
f 43/43/50 39/39/46 38/38/44
f 44/44/51 40/40/52 39/39/46
f 46/46/53 42/42/49 41/41/47
f 47/47/54 43/43/55 42/42/49
f 48/48/56 44/44/51 43/43/50
f 49/49/57 45/45/58 44/44/51
f 46/46/53 52/52/59 47/47/54
f 52/52/59 48/48/60 47/47/54
f 53/53/61 49/49/57 48/48/56
f 54/54/62 50/50/63 49/49/57
f 56/56/64 52/52/59 51/51/65
f 52/52/59 58/58/66 53/53/67
f 53/53/61 59/59/68 54/54/62
f 59/59/68 55/55/69 54/54/62
f 56/56/64 62/62/70 57/57/71
f 62/62/70 58/58/66 57/57/71
f 63/63/72 59/59/68 58/58/73
f 64/64/74 60/60/75 59/59/68
f 66/66/76 62/62/70 61/61/77
f 62/62/70 68/68/78 63/63/79
f 68/68/80 64/64/74 63/63/72
f 69/69/81 65/65/82 64/64/74
f 71/71/83 67/67/84 66/66/76
f 72/72/85 68/68/78 67/67/84
f 73/73/86 69/69/81 68/68/80
f 69/69/81 75/75/87 70/70/88
f 71/71/83 77/77/89 72/72/85
f 77/77/89 73/73/90 72/72/85
f 78/78/91 74/74/92 73/73/86
f 79/79/93 75/75/87 74/74/92
f 1/1/3 77/77/89 76/76/94
f 2/2/2 78/78/95 77/77/89
f 3/3/8 79/79/93 78/78/91
f 4/4/7 80/80/96 79/79/93
f 46/46/97 26/26/97 6/6/97
f 6/6/1 7/7/12 2/2/2
f 2/2/2 7/7/12 8/8/4
f 8/8/6 9/9/9 4/4/7
f 9/9/9 10/10/15 5/5/10
f 6/6/1 11/11/17 12/12/11
f 12/12/11 13/13/19 8/8/4
f 13/13/13 14/14/21 9/9/9
f 9/9/9 14/14/21 15/15/14
f 16/16/16 17/17/24 12/12/11
f 12/12/11 17/17/24 18/18/18
f 18/18/20 19/19/22 14/14/21
f 19/19/22 20/20/28 15/15/14
f 21/21/23 22/22/25 17/17/24
f 22/22/25 23/23/31 18/18/18
f 23/23/26 24/24/27 19/19/22
f 24/24/27 25/25/34 20/20/28
f 26/26/29 27/27/30 22/22/25
f 27/27/30 28/28/37 23/23/31
f 28/28/32 29/29/33 24/24/27
f 29/29/33 30/30/40 25/25/34
f 31/31/35 32/32/36 27/27/30
f 32/32/36 33/33/43 28/28/37
f 33/33/38 34/34/45 29/29/33
f 29/29/33 34/34/45 35/35/39
f 36/36/41 37/37/48 32/32/36
f 32/32/36 37/37/48 38/38/42
f 38/38/44 39/39/46 34/34/45
f 39/39/46 40/40/52 35/35/39
f 41/41/47 42/42/49 37/37/48
f 42/42/49 43/43/55 38/38/42
f 43/43/50 44/44/51 39/39/46
f 44/44/51 45/45/58 40/40/52
f 46/46/53 47/47/54 42/42/49
f 47/47/54 48/48/60 43/43/55
f 48/48/56 49/49/57 44/44/51
f 49/49/57 50/50/63 45/45/58
f 46/46/53 51/51/65 52/52/59
f 52/52/59 53/53/67 48/48/60
f 53/53/61 54/54/62 49/49/57
f 54/54/62 55/55/69 50/50/63
f 56/56/64 57/57/71 52/52/59
f 52/52/59 57/57/71 58/58/66
f 53/53/61 58/58/73 59/59/68
f 59/59/68 60/60/75 55/55/69
f 56/56/64 61/61/77 62/62/70
f 62/62/70 63/63/79 58/58/66
f 63/63/72 64/64/74 59/59/68
f 64/64/74 65/65/82 60/60/75
f 66/66/76 67/67/84 62/62/70
f 62/62/70 67/67/84 68/68/78
f 68/68/80 69/69/81 64/64/74
f 69/69/81 70/70/88 65/65/82
f 71/71/83 72/72/85 67/67/84
f 72/72/85 73/73/90 68/68/78
f 73/73/86 74/74/92 69/69/81
f 69/69/81 74/74/92 75/75/87
f 71/71/83 76/76/94 77/77/89
f 77/77/89 78/78/95 73/73/90
f 78/78/91 79/79/93 74/74/92
f 79/79/93 80/80/96 75/75/87
f 1/1/3 2/2/2 77/77/89
f 2/2/2 3/3/5 78/78/95
f 3/3/8 4/4/7 79/79/93
f 4/4/7 5/5/10 80/80/96
f 6/6/97 1/1/97 76/76/97
f 76/76/97 71/71/97 66/66/97
f 66/66/97 61/61/97 56/56/97
f 56/56/97 51/51/97 46/46/97
f 46/46/97 41/41/97 36/36/97
f 36/36/97 31/31/97 26/26/97
f 26/26/97 21/21/97 16/16/97
f 16/16/97 11/11/97 6/6/97
f 6/6/97 76/76/97 66/66/97
f 66/66/97 56/56/97 46/46/97
f 46/46/97 36/36/97 26/26/97
f 26/26/97 16/16/97 6/6/97
f 6/6/97 66/66/97 46/46/97
o Torus.001
v -0.765077 0.000000 0.097804
v -0.706839 -0.292782 0.097804
v -0.540991 -0.540991 0.097804
v -0.292782 -0.706839 0.097804
v -0.000000 -0.765077 0.097804
v 0.292782 -0.706839 0.097804
v 0.540991 -0.540991 0.097804
v 0.706839 -0.292782 0.097804
v 0.765077 -0.000000 0.097804
v 0.706839 0.292782 0.097804
v 0.540991 0.540991 0.097804
v 0.292782 0.706839 0.097804
v -0.000000 0.765077 0.097804
v -0.292782 0.706839 0.097804
v -0.540991 0.540991 0.097804
v -0.706839 0.292783 0.097804
v 0.591952 0.001226 0.153910
v 0.546683 0.228808 0.153910
v -0.597453 0.001226 0.153910
v -0.552184 -0.226357 0.153910
v 0.224832 0.550659 0.153910
v -0.002751 0.595928 0.153910
v -0.552184 0.228809 0.153910
v -0.230334 -0.548208 0.153910
v -0.002751 -0.593477 0.153910
v -0.423269 0.421744 0.153910
v 0.417768 0.421744 0.153910
v 0.417768 -0.419292 0.153910
v 0.546683 -0.226357 0.153910
v -0.423269 -0.419292 0.153910
v -0.230334 0.550659 0.153910
v 0.224832 -0.548208 0.153910
v 0.344220 0.011616 0.238446
v 0.318574 0.140547 0.238446
v -0.329607 0.011616 0.238446
v -0.303961 -0.117315 0.238446
v 0.136237 0.322883 0.238446
v 0.007306 0.348529 0.238446
v -0.303961 0.140547 0.238446
v -0.121625 -0.299651 0.238446
v 0.007306 -0.325297 0.238446
v -0.230927 0.249850 0.238446
v 0.245540 0.249849 0.238446
v 0.245540 -0.226618 0.238446
v 0.318574 -0.117315 0.238446
v -0.230927 -0.226618 0.238446
v -0.121625 0.322883 0.238446
v 0.136237 -0.299651 0.238446
vn -0.2250 -0.2256 -0.9479
vn -0.0716 -0.1714 -0.9826
vn -0.1214 -0.2951 -0.9477
vn -0.2929 -0.1213 -0.9484
vn -0.2203 -0.2196 -0.9504
vn -0.2860 -0.1180 -0.9509
vn 0.1223 -0.2926 -0.9484
vn 0.2244 -0.2247 -0.9483
vn 0.1207 -0.2925 -0.9486
vn -0.2181 0.2178 -0.9513
vn -0.2880 0.1201 -0.9501
vn -0.2844 0.1178 -0.9514
vn -0.3147 0.0004 -0.9492
vn -0.3083 0.0002 -0.9513
vn -0.1187 0.2855 -0.9510
vn -0.2182 0.2195 -0.9509
vn 0.2920 0.1214 -0.9487
vn 0.2171 0.2166 -0.9518
vn 0.2221 0.2228 -0.9492
vn 0.3174 0.0002 -0.9483
vn 0.2847 0.1179 -0.9514
vn 0.0010 -0.3186 -0.9479
vn -0.0005 -0.3148 -0.9492
vn -0.1203 -0.2889 -0.9498
vn -0.0005 0.3108 -0.9505
vn -0.1168 0.2845 -0.9515
vn 0.2937 -0.1216 -0.9481
vn 0.3102 0.0003 -0.9507
vn 0.1191 0.2891 -0.9499
vn 0.0009 0.3063 -0.9519
vn 0.2234 -0.2221 -0.9491
vn 0.1178 0.2825 -0.9520
vn 0.1562 0.0642 -0.9856
vn 0.0679 -0.1674 -0.9835
vn -0.1713 -0.0716 -0.9826
vn 0.1599 -0.0676 -0.9848
vn 0.2890 -0.1190 -0.9499
vn 0.1189 0.1189 -0.9858
vn 0.1242 -0.1262 -0.9842
vn -0.1260 0.1240 -0.9842
vn -0.1835 -0.0011 -0.9830
vn -0.0675 0.1597 -0.9849
vn -0.0011 -0.1837 -0.9830
vn -0.0009 0.1706 -0.9853
vn 0.1708 -0.0010 -0.9853
vn -0.1672 0.0678 -0.9836
vn 0.0641 0.1561 -0.9857
vn -0.1318 -0.1319 -0.9825
vt 0.956435 0.502386
vt 0.921723 0.676897
vt 0.822871 0.824839
vt 0.674928 0.923691
vt 0.500418 0.958404
vt 0.325908 0.923691
vt 0.177965 0.824839
vt 0.079113 0.676897
vt 0.044401 0.502387
vt 0.079113 0.327876
vt 0.177965 0.179934
vt 0.325908 0.081082
vt 0.500418 0.046369
vt 0.674928 0.081082
vt 0.822871 0.179933
vt 0.921723 0.327876
vt 0.147590 0.501656
vt 0.174573 0.366007
vt 0.856525 0.501656
vt 0.829543 0.637304
vt 0.366409 0.174171
vt 0.502058 0.147189
vt 0.829543 0.366007
vt 0.637706 0.829141
vt 0.502058 0.856123
vt 0.752704 0.251010
vt 0.251411 0.251010
vt 0.251411 0.752302
vt 0.174573 0.637305
vt 0.752704 0.752302
vt 0.637706 0.174171
vt 0.366409 0.829141
vt 0.295249 0.495463
vt 0.310535 0.418615
vt 0.696877 0.495463
vt 0.681591 0.572311
vt 0.419215 0.309935
vt 0.496063 0.294649
vt 0.681591 0.418615
vt 0.572911 0.680991
vt 0.496063 0.696277
vt 0.638060 0.353466
vt 0.354066 0.353466
vt 0.354066 0.637460
vt 0.310535 0.572311
vt 0.638060 0.637460
vt 0.572911 0.309935
vt 0.419215 0.680991
s 1
f 107/107/98 117/117/99 101/101/100
f 98/98/101 91/91/102 90/90/103
f 111/111/104 95/95/105 94/94/106
f 87/87/107 109/109/108 88/88/109
f 97/97/110 90/90/103 89/89/111
f 86/86/112 108/108/113 87/87/107
f 82/82/114 110/110/115 83/83/116
f 81/81/117 100/100/118 82/82/114
f 102/102/119 94/94/106 93/93/120
f 101/101/100 93/93/120 92/92/121
f 85/85/122 112/112/123 86/86/112
f 96/96/124 99/99/125 81/81/117
f 109/109/108 89/89/111 88/88/109
f 84/84/126 105/105/127 85/85/122
f 107/107/98 92/92/121 91/91/102
f 106/106/128 96/96/124 95/95/105
f 83/83/116 104/104/129 84/84/126
f 116/116/130 127/127/131 114/114/132
f 106/106/128 119/119/133 103/103/134
f 126/126/135 104/104/129 110/110/115
f 114/114/132 107/107/98 98/98/101
f 111/111/104 122/122/136 106/106/128
f 124/124/137 109/109/108 108/108/113
f 113/113/138 98/98/101 97/97/110
f 128/128/139 108/108/113 112/112/123
f 100/100/118 126/126/135 110/110/115
f 99/99/125 116/116/130 100/100/118
f 102/102/119 127/127/131 111/111/104
f 101/101/100 118/118/140 102/102/119
f 121/121/141 112/112/123 105/105/127
f 103/103/134 115/115/142 99/99/125
f 125/125/143 97/97/110 109/109/108
f 120/120/144 105/105/127 104/104/129
f 107/107/98 123/123/145 117/117/99
f 98/98/101 107/107/98 91/91/102
f 111/111/104 106/106/128 95/95/105
f 87/87/107 108/108/113 109/109/108
f 97/97/110 98/98/101 90/90/103
f 86/86/112 112/112/123 108/108/113
f 82/82/114 100/100/118 110/110/115
f 81/81/117 99/99/125 100/100/118
f 102/102/119 111/111/104 94/94/106
f 101/101/100 102/102/119 93/93/120
f 85/85/122 105/105/127 112/112/123
f 96/96/124 103/103/134 99/99/125
f 109/109/108 97/97/110 89/89/111
f 84/84/126 104/104/129 105/105/127
f 107/107/98 101/101/100 92/92/121
f 106/106/128 103/103/134 96/96/124
f 83/83/116 110/110/115 104/104/129
f 114/114/132 113/113/138 125/125/143
f 125/125/143 124/124/137 128/128/139
f 128/128/139 121/121/141 120/120/144
f 120/120/144 126/126/135 116/116/130
f 116/116/130 115/115/142 119/119/133
f 119/119/133 122/122/136 127/127/131
f 127/127/131 118/118/140 117/117/99
f 117/117/99 123/123/145 114/114/132
f 114/114/132 125/125/143 128/128/139
f 128/128/139 120/120/144 116/116/130
f 116/116/130 119/119/133 127/127/131
f 127/127/131 117/117/99 114/114/132
f 114/114/132 128/128/139 116/116/130
f 106/106/128 122/122/136 119/119/133
f 126/126/135 120/120/144 104/104/129
f 114/114/132 123/123/145 107/107/98
f 111/111/104 127/127/131 122/122/136
f 124/124/137 125/125/143 109/109/108
f 113/113/138 114/114/132 98/98/101
f 128/128/139 124/124/137 108/108/113
f 100/100/118 116/116/130 126/126/135
f 99/99/125 115/115/142 116/116/130
f 102/102/119 118/118/140 127/127/131
f 101/101/100 117/117/99 118/118/140
f 121/121/141 128/128/139 112/112/123
f 103/103/134 119/119/133 115/115/142
f 125/125/143 113/113/138 97/97/110
f 120/120/144 121/121/141 105/105/127
o Torus.002
v -0.765077 0.000000 0.097804
v -0.706839 -0.292782 0.097804
v -0.540991 -0.540991 0.097804
v -0.292782 -0.706839 0.097804
v -0.000000 -0.765077 0.097804
v 0.292782 -0.706839 0.097804
v 0.540991 -0.540991 0.097804
v 0.706839 -0.292782 0.097804
v 0.765077 -0.000000 0.097804
v 0.706839 0.292782 0.097804
v 0.540991 0.540991 0.097804
v 0.292782 0.706839 0.097804
v -0.000000 0.765077 0.097804
v -0.292782 0.706839 0.097804
v -0.540991 0.540991 0.097804
v -0.706839 0.292783 0.097804
vn -0.0000 -0.0000 -1.0000
vt 0.500000 0.000000
vt 0.308658 0.038060
vt 0.146447 0.146446
vt 0.038060 0.308658
vt 0.000000 0.500000
vt 0.038060 0.691342
vt 0.146447 0.853554
vt 0.308659 0.961940
vt 0.500000 1.000000
vt 0.691342 0.961940
vt 0.853553 0.853553
vt 0.961940 0.691342
vt 1.000000 0.500000
vt 0.961940 0.308658
vt 0.853553 0.146447
vt 0.691342 0.038060
s 1
f 130/130/146 142/142/146 138/138/146
f 138/138/146 137/137/146 136/136/146
f 136/136/146 135/135/146 134/134/146
f 134/134/146 133/133/146 132/132/146
f 132/132/146 131/131/146 130/130/146
f 130/130/146 129/129/146 144/144/146
f 144/144/146 143/143/146 142/142/146
f 142/142/146 141/141/146 140/140/146
f 140/140/146 139/139/146 138/138/146
f 138/138/146 136/136/146 134/134/146
f 134/134/146 132/132/146 130/130/146
f 130/130/146 144/144/146 142/142/146
f 142/142/146 140/140/146 138/138/146
f 138/138/146 134/134/146 130/130/146
