# Blender 3.4.0
# www.blender.org
o Cube
v 5.999557 -5.198774 0.027999
v 5.999557 -5.198775 -7.713663
v 5.999557 5.925774 0.027998
v 5.999557 5.925774 -7.713663
v -5.999557 -5.198774 0.027999
v -5.999557 -5.198775 -7.713663
v -5.999557 5.925774 0.027998
v -5.999557 5.925774 -7.713663
v 5.999557 2.670325 0.027999
v 5.999557 2.670324 -7.713662
v -5.999557 2.670325 0.027999
v -5.999557 2.670324 -7.713662
v 5.999557 -1.258462 0.027999
v -5.999557 -1.258463 -7.713662
v 5.999557 -1.258463 -7.713662
v -5.999557 -1.258462 0.027999
v 5.999557 -5.198774 -2.684627
v 5.999557 5.925774 -2.684628
v -5.999557 5.925774 -2.684628
v -5.999557 -5.198774 -2.684627
v -5.999557 2.670325 -2.684628
v 5.999557 2.670325 -2.684628
v 5.999557 -1.258463 -2.684627
v -5.999557 -1.258463 -2.684627
v -14.303701 -1.258462 0.027999
v -14.303701 2.670325 0.027999
v -14.303701 2.670325 -2.684628
v -14.303701 -1.258463 -2.684627
v 14.589282 2.670325 -2.684628
v 14.589282 2.670325 0.027999
v 14.589282 -1.258462 0.027999
v 14.589282 -1.258463 -2.684627
vn 1.0000 -0.0000 -0.0000
vn -0.0000 1.0000 -0.0000
vn -1.0000 -0.0000 -0.0000
vn -0.0000 -0.0000 1.0000
vt 0.652968 0.800322
vt 0.385026 0.702705
vt 0.385026 0.800322
vt 0.000000 0.702705
vt 0.652968 0.415296
vt 0.385026 0.415295
vt 0.385026 0.287411
vt 0.920911 0.000000
vt 0.652968 0.000000
vt 0.920911 0.385026
vt 0.000000 0.287411
vt 0.652968 0.000000
vt 0.385026 0.000000
vt 0.652968 0.385026
vt 0.652968 0.527968
vt 0.112673 0.702705
vt 0.746854 0.385026
vt 0.385026 0.527968
vt 0.840739 0.672437
vt 0.112673 0.287411
vt 0.920911 0.272353
vt 0.652968 0.272353
vt 0.652968 0.663945
vt 0.248650 0.702705
vt 0.652968 0.136376
vt 0.385026 0.663945
vt 0.920911 0.136376
vt 0.248650 0.287411
vt 0.559083 0.800322
vt 0.559083 0.415296
vt 0.827026 0.385026
vt 0.559083 0.000000
vt 0.827026 0.000000
vt 0.827026 0.272353
vt 0.746854 0.672437
vt 0.652968 0.385026
vt 0.559083 0.527968
vt 0.559083 0.663945
vt 0.827026 0.136376
vt 0.248650 0.000000
vt 0.746854 0.682320
vt 0.746854 0.818298
vt 0.112673 0.000000
vt 0.840739 0.385026
vt 0.652968 0.818298
vt 0.746854 0.385026
vt 0.652968 0.682320
vt 0.746854 0.672436
vt 0.652968 0.682321
vt 0.112673 1.000000
vt 0.840739 0.672436
vt 0.746854 0.682321
vt 0.840739 0.808414
vt 0.248650 1.000000
vt 0.746854 0.808414
s 0
f 10/18/1 18/30/1 22/37/1
f 4/6/2 19/32/2 18/30/2
f 14/25/3 20/33/3 24/39/3
f 16/28/4 1/2/4 13/24/4
f 7/11/4 9/16/4 3/4/4
f 8/14/3 21/34/3 19/31/3
f 15/26/1 22/37/1 23/38/1
f 2/3/1 23/38/1 17/29/1
f 11/20/4 13/24/4 9/16/4
f 12/22/3 24/39/3 21/34/3
f 11/20/4 25/40/4 16/28/4
f 17/29/1 13/23/1 1/1/1
f 13/24/4 30/50/4 9/16/4
f 19/31/3 11/21/3 7/10/3
f 24/39/3 5/8/3 16/27/3
f 18/30/2 7/12/2 3/5/2
f 22/37/1 3/5/1 9/15/1
f 27/45/3 25/41/3 26/42/3
f 21/35/2 26/44/2 11/19/2
f 32/55/1 30/51/1 31/53/1
f 9/17/2 29/49/2 22/36/2
f 10/18/1 4/6/1 18/30/1
f 4/6/2 8/13/2 19/32/2
f 14/25/3 6/9/3 20/33/3
f 16/28/4 5/7/4 1/2/4
f 7/11/4 11/20/4 9/16/4
f 8/14/3 12/22/3 21/34/3
f 15/26/1 10/18/1 22/37/1
f 2/3/1 15/26/1 23/38/1
f 11/20/4 16/28/4 13/24/4
f 12/22/3 14/25/3 24/39/3
f 11/20/4 26/43/4 25/40/4
f 17/29/1 23/38/1 13/23/1
f 13/24/4 31/54/4 30/50/4
f 19/31/3 21/34/3 11/21/3
f 24/39/3 20/33/3 5/8/3
f 18/30/2 19/32/2 7/12/2
f 22/37/1 18/30/1 3/5/1
f 27/45/3 28/47/3 25/41/3
f 21/35/2 27/46/2 26/44/2
f 32/55/1 29/48/1 30/51/1
f 9/17/2 30/52/2 29/49/2
