# Blender 3.3.0
# www.blender.org
mtllib world.mtl
o Cube
v -35.258972 -0.559698 32.236752
v -35.258972 0.559698 32.236752
v -35.258972 -0.559698 -32.236752
v -35.258972 0.559698 -32.236752
v 35.258972 -0.559698 32.236752
v 35.258972 0.559698 32.236752
v 35.258972 -0.559698 -32.236752
v 35.258972 0.559698 -32.236752
v -35.258972 35.729458 32.236752
v -35.258972 35.729458 -32.236752
v 35.258972 35.729458 32.236752
v 35.258972 35.729458 -32.236752
v -35.258972 6.014498 32.236752
v -35.258972 6.014499 -32.236752
v 35.258972 6.014498 32.236752
v 35.258972 6.014499 -32.236752
vn -1.0000 -0.0000 -0.0000
vn -0.0000 -0.0000 -1.0000
vn 1.0000 -0.0000 -0.0000
vn -0.0000 -0.0000 1.0000
vn -0.0000 1.0000 -0.0000
vt 0.375000 0.000000
vt 0.375000 1.000000
vt 4.223211 -0.018756
vt 0.625000 0.000000
vt 0.625000 1.000000
vt -1.348512 2.348512
vt -3.223212 -0.018756
vt 0.375000 0.250000
vt 4.223211 -0.018756
vt 0.625000 0.250000
vt 2.348512 2.348512
vt -3.223212 -0.018756
vt 0.375000 0.750000
vt -1.348512 -1.348512
vt 4.223211 -0.018756
vt 0.625000 0.750000
vt -3.223212 -0.018756
vt 0.375000 0.500000
vt 4.223211 -0.018756
vt 0.625000 0.500000
vt 2.348512 -1.348512
vt -3.223212 -0.018756
vt 3.750000 -2.000000
vt -2.750000 -2.000000
vt -2.750000 -2.000000
vt 3.750000 -2.000000
vt 3.750000 -2.000000
vt -2.750000 -2.000000
vt -2.750000 -2.000000
vt 3.750000 -2.000000
vt -2.750000 3.000000
vt 3.750000 3.000000
vt 4.223211 1.018756
vt -3.223212 1.018756
vt -2.750000 3.000000
vt 3.750000 3.000000
vt -3.223212 1.018756
vt 4.223211 1.018756
vt -2.750000 3.000000
vt 3.750000 3.000000
vt 4.223211 1.018756
vt -3.223212 1.018756
vt -2.750000 3.000000
vt 3.750000 3.000000
vt -3.223212 1.018756
vt 4.223211 1.018756
s 0
usemtl floor
f 2/4/1 3/8/1 1/1/1
f 4/10/2 7/18/2 3/8/2
f 8/20/3 5/13/3 7/18/3
f 6/16/4 1/2/4 5/13/4
f 8/21/5 2/6/5 6/14/5
f 2/4/1 4/10/1 3/8/1
f 4/10/2 8/20/2 7/18/2
f 8/20/3 6/16/3 5/13/3
f 6/16/4 2/5/4 1/2/4
f 8/21/5 4/11/5 2/6/5
usemtl walls
f 10/25/3 13/32/3 14/35/3
f 9/24/2 15/40/2 13/31/2
f 12/29/4 14/36/4 16/43/4
f 11/28/1 16/44/1 15/39/1
f 10/25/3 9/23/3 13/32/3
f 9/24/2 11/27/2 15/40/2
f 12/29/4 10/26/4 14/36/4
f 11/28/1 12/30/1 16/44/1
usemtl coolstuff
f 15/41/1 8/22/1 6/15/1
f 16/46/4 4/12/4 8/19/4
f 13/33/2 6/17/2 2/3/2
f 14/38/3 2/7/3 4/9/3
f 15/41/1 16/45/1 8/22/1
f 16/46/4 14/37/4 4/12/4
f 13/33/2 15/42/2 6/17/2
f 14/38/3 13/34/3 2/7/3
